<?xml version="1.0" encoding="UTF-8"?>
<!DOCTYPE svg PUBLIC "-//W3C//DTD SVG 1.1//EN" "http://www.w3.org/Graphics/SVG/1.1/DTD/svg11.dtd">
<svg version="1.1" xmlns="http://www.w3.org/2000/svg" xmlns:xlink="http://www.w3.org/1999/xlink" x="0" y="0" width="91.631" height="68.92" viewBox="0, 0, 91.631, 68.92">
  <g id="Layer_1" transform="translate(-156.327, -451.627)">
    <g>
      <path d="M160.7,494.414 C158.285,494.414 156.327,492.456 156.327,490.04 C156.327,487.625 158.285,485.667 160.7,485.667 C163.116,485.667 165.074,487.625 165.074,490.04 C165.074,492.456 163.116,494.414 160.7,494.414 z" fill="#009999"/>
      <path d="M172.611,479.731 C170.864,479.731 169.448,478.315 169.448,476.568 C169.448,474.821 170.864,473.405 172.611,473.405 C174.357,473.405 175.774,474.821 175.774,476.568 C175.774,478.315 174.357,479.731 172.611,479.731 z" fill="#009999"/>
      <path d="M181.428,479.167 C179.681,479.167 178.265,477.75 178.265,476.004 C178.265,474.257 179.681,472.841 181.428,472.841 C183.175,472.841 184.591,474.257 184.591,476.004 C184.591,477.75 183.175,479.167 181.428,479.167 z" fill="#009999"/>
      <path d="M181.787,470.984 C179.803,470.984 178.195,469.376 178.195,467.392 C178.195,465.407 179.803,463.799 181.787,463.799 C183.771,463.799 185.38,465.407 185.38,467.392 C185.38,469.376 183.771,470.984 181.787,470.984 z" fill="#009999"/>
      <path d="M190.61,465.449 C188.195,465.392 186.283,463.389 186.339,460.975 C186.395,458.56 188.398,456.648 190.813,456.704 C193.228,456.76 195.14,458.763 195.084,461.178 C195.028,463.592 193.025,465.505 190.61,465.449 z" fill="#009999"/>
      <path d="M201.499,463.127 C199.084,463.071 197.172,461.068 197.228,458.653 C197.284,456.238 199.287,454.326 201.702,454.382 C204.117,454.438 206.029,456.441 205.973,458.856 C205.917,461.271 203.913,463.183 201.499,463.127 z" fill="#009999"/>
      <path d="M211.596,460.373 C209.181,460.317 207.269,458.314 207.325,455.899 C207.381,453.484 209.384,451.572 211.799,451.628 C214.214,451.684 216.126,453.687 216.07,456.102 C216.014,458.517 214.011,460.429 211.596,460.373 z" fill="#009999"/>
      <path d="M167.261,488.479 C164.845,488.479 162.887,486.52 162.887,484.105 C162.887,481.689 164.845,479.731 167.261,479.731 C169.676,479.731 171.634,481.689 171.634,484.105 C171.634,486.52 169.676,488.479 167.261,488.479 z" fill="#009999"/>
      <path d="M181.428,488.479 C179.012,488.479 177.054,486.52 177.054,484.105 C177.054,481.689 179.012,479.731 181.428,479.731 C183.843,479.731 185.802,481.689 185.802,484.105 C185.802,486.52 183.843,488.479 181.428,488.479 z" fill="#009999"/>
      <path d="M206.731,504.988 C205.113,504.988 203.802,503.676 203.802,502.058 C203.802,500.44 205.113,499.129 206.731,499.129 C208.349,499.129 209.661,500.44 209.661,502.058 C209.661,503.676 208.349,504.988 206.731,504.988 z" fill="#005799"/>
      <path d="M223.576,520.547 C222.38,520.547 221.41,519.577 221.41,518.381 C221.41,517.184 222.38,516.215 223.576,516.215 C224.773,516.215 225.742,517.184 225.742,518.381 C225.742,519.577 224.773,520.547 223.576,520.547 z" fill="#005799"/>
      <path d="M211.894,513.605 C210.697,513.605 209.728,512.635 209.728,511.439 C209.728,510.242 210.697,509.272 211.894,509.272 C213.09,509.272 214.06,510.242 214.06,511.439 C214.06,512.635 213.09,513.605 211.894,513.605 z" fill="#005799"/>
      <path d="M218.529,516.215 C216.612,516.215 215.058,514.661 215.058,512.744 C215.058,510.827 216.612,509.272 218.529,509.272 C220.446,509.272 222,510.827 222,512.744 C222,514.661 220.446,516.215 218.529,516.215 z" fill="#005799"/>
      <path d="M218.673,508.367 C216.758,509.839 214.012,509.479 212.54,507.564 C211.068,505.649 211.427,502.903 213.343,501.431 C215.258,499.959 218.004,500.318 219.476,502.234 C220.948,504.149 220.588,506.895 218.673,508.367 z" fill="#005799"/>
      <path d="M211.902,479.326 C210.543,480.37 208.595,480.115 207.551,478.757 C206.506,477.398 206.761,475.45 208.12,474.406 C209.479,473.361 211.427,473.616 212.471,474.975 C213.515,476.334 213.26,478.282 211.902,479.326 z" fill="#005799"/>
      <path d="M203.015,480.682 C201.1,482.154 198.354,481.795 196.882,479.88 C195.41,477.965 195.769,475.219 197.684,473.747 C199.599,472.275 202.345,472.634 203.817,474.549 C205.289,476.464 204.93,479.21 203.015,480.682 z" fill="#005799"/>
      <path d="M208.702,488.053 C206.787,489.525 204.041,489.165 202.569,487.25 C201.097,485.335 201.457,482.589 203.372,481.117 C205.287,479.645 208.033,480.005 209.505,481.92 C210.977,483.835 210.617,486.581 208.702,488.053 z" fill="#005799"/>
      <path d="M214.832,492.731 C213.443,493.798 211.452,493.538 210.385,492.149 C209.317,490.76 209.578,488.769 210.966,487.701 C212.355,486.634 214.346,486.895 215.414,488.283 C216.481,489.672 216.221,491.663 214.832,492.731 z" fill="#005799"/>
      <path d="M192.846,481.544 C191.457,482.611 189.466,482.351 188.399,480.962 C187.331,479.573 187.592,477.582 188.98,476.514 C190.369,475.447 192.36,475.707 193.428,477.096 C194.495,478.485 194.235,480.476 192.846,481.544 z" fill="#005799"/>
      <path d="M222.734,485.222 C220.9,486.631 218.272,486.287 216.863,484.454 C215.454,482.621 215.798,479.993 217.631,478.584 C219.464,477.175 222.093,477.518 223.502,479.352 C224.911,481.185 224.567,483.813 222.734,485.222 z" fill="#005799"/>
      <path d="M203.689,512.489 C201.81,512.489 200.286,510.966 200.286,509.087 C200.286,507.208 201.81,505.684 203.689,505.684 C205.568,505.684 207.091,507.208 207.091,509.087 C207.091,510.966 205.568,512.489 203.689,512.489 z" fill="#005799"/>
      <path d="M195.022,507.647 C192.606,507.647 190.648,505.689 190.648,503.274 C190.648,500.858 192.606,498.9 195.022,498.9 C197.437,498.9 199.395,500.858 199.395,503.274 C199.395,505.689 197.437,507.647 195.022,507.647 z" fill="#005799"/>
      <path d="M210.011,498.9 C208.82,498.9 207.856,497.935 207.856,496.745 C207.856,495.555 208.82,494.59 210.011,494.59 C211.201,494.59 212.166,495.555 212.166,496.745 C212.166,497.935 211.201,498.9 210.011,498.9 z" fill="#005799"/>
      <path d="M215.269,499.129 C214.079,499.129 213.114,498.164 213.114,496.973 C213.114,495.783 214.079,494.818 215.269,494.818 C216.459,494.818 217.424,495.783 217.424,496.973 C217.424,498.164 216.459,499.129 215.269,499.129 z" fill="#005799"/>
      <path d="M212.902,485.447 C211.712,485.447 210.747,484.482 210.747,483.292 C210.747,482.101 211.712,481.136 212.902,481.136 C214.093,481.136 215.058,482.101 215.058,483.292 C215.058,484.482 214.093,485.447 212.902,485.447 z" fill="#005799"/>
      <path d="M203.819,498.725 C202.628,498.725 201.663,497.76 201.663,496.569 C201.663,495.379 202.628,494.414 203.819,494.414 C205.009,494.414 205.974,495.379 205.974,496.569 C205.974,497.76 205.009,498.725 203.819,498.725 z" fill="#009999"/>
      <path d="M196.727,493.388 C195.82,493.388 195.085,492.653 195.085,491.746 C195.085,490.839 195.82,490.103 196.727,490.103 C197.634,490.103 198.369,490.839 198.369,491.746 C198.369,492.653 197.634,493.388 196.727,493.388 z" fill="#009999"/>
      <path d="M202.442,493.523 C201.251,493.523 200.286,492.558 200.286,491.368 C200.286,490.177 201.251,489.212 202.442,489.212 C203.632,489.212 204.597,490.177 204.597,491.368 C204.597,492.558 203.632,493.523 202.442,493.523 z" fill="#009999"/>
      <path d="M195.71,489.212 C194.52,489.212 193.555,488.248 193.555,487.057 C193.555,485.867 194.52,484.902 195.71,484.902 C196.901,484.902 197.866,485.867 197.866,487.057 C197.866,488.248 196.901,489.212 195.71,489.212 z" fill="#009999"/>
      <path d="M189.897,487.683 C188.706,487.683 187.741,486.718 187.741,485.527 C187.741,484.337 188.706,483.372 189.897,483.372 C191.087,483.372 192.052,484.337 192.052,485.527 C192.052,486.718 191.087,487.683 189.897,487.683 z" fill="#009999"/>
      <path d="M190.635,475.295 C189.444,475.295 188.479,474.33 188.479,473.139 C188.479,471.949 189.444,470.984 190.635,470.984 C191.825,470.984 192.79,471.949 192.79,473.139 C192.79,474.33 191.825,475.295 190.635,475.295 z" fill="#009999"/>
      <path d="M195.71,474.071 C194.52,474.071 193.555,473.106 193.555,471.916 C193.555,470.725 194.52,469.76 195.71,469.76 C196.901,469.76 197.866,470.725 197.866,471.916 C197.866,473.106 196.901,474.071 195.71,474.071 z" fill="#009999"/>
      <path d="M197.24,468.11 C196.05,468.11 195.085,467.145 195.085,465.954 C195.085,464.764 196.05,463.799 197.24,463.799 C198.43,463.799 199.395,464.764 199.395,465.954 C199.395,467.145 198.43,468.11 197.24,468.11 z" fill="#009999"/>
      <path d="M203.819,469.76 C202.628,469.76 201.663,468.795 201.663,467.605 C201.663,466.415 202.628,465.45 203.819,465.45 C205.009,465.45 205.974,466.415 205.974,467.605 C205.974,468.795 205.009,469.76 203.819,469.76 z" fill="#009999"/>
      <path d="M209.479,465.45 C208.289,465.45 207.324,464.485 207.324,463.294 C207.324,462.104 208.289,461.139 209.479,461.139 C210.669,461.139 211.634,462.104 211.634,463.294 C211.634,464.485 210.669,465.45 209.479,465.45 z" fill="#009999"/>
      <path d="M215.599,467.438 C214.408,467.438 213.443,466.474 213.443,465.283 C213.443,464.093 214.408,463.128 215.599,463.128 C216.789,463.128 217.754,464.093 217.754,465.283 C217.754,466.474 216.789,467.438 215.599,467.438 z" fill="#009999"/>
      <path d="M221.524,467.438 C220.334,467.438 219.369,466.474 219.369,465.283 C219.369,464.093 220.334,463.128 221.524,463.128 C222.714,463.128 223.679,464.093 223.679,465.283 C223.679,466.474 222.714,467.438 221.524,467.438 z" fill="#009999"/>
      <path d="M227.898,467.438 C226.707,467.438 225.742,466.474 225.742,465.283 C225.742,464.093 226.707,463.128 227.898,463.128 C229.088,463.128 230.053,464.093 230.053,465.283 C230.053,466.474 229.088,467.438 227.898,467.438 z" fill="#009999"/>
      <path d="M227.468,472.546 C226.515,472.546 225.742,471.773 225.742,470.82 C225.742,469.867 226.515,469.094 227.468,469.094 C228.422,469.094 229.194,469.867 229.194,470.82 C229.194,471.773 228.422,472.546 227.468,472.546 z" fill="#009999"/>
      <path d="M229.025,478.747 C228.072,478.747 227.299,477.974 227.299,477.021 C227.299,476.067 228.072,475.295 229.025,475.295 C229.978,475.295 230.751,476.067 230.751,477.021 C230.751,477.974 229.978,478.747 229.025,478.747 z" fill="#009999"/>
      <path d="M223.791,475.998 C222.837,475.998 222.065,475.225 222.065,474.272 C222.065,473.319 222.837,472.546 223.791,472.546 C224.744,472.546 225.517,473.319 225.517,474.272 C225.517,475.225 224.744,475.998 223.791,475.998 z" fill="#009999"/>
      <path d="M207.7,473.973 C206.746,473.973 205.974,473.201 205.974,472.247 C205.974,471.294 206.746,470.522 207.7,470.522 C208.653,470.522 209.426,471.294 209.426,472.247 C209.426,473.201 208.653,473.973 207.7,473.973 z" fill="#009999"/>
      <path d="M217.722,477.425 C216.768,477.425 215.996,476.652 215.996,475.699 C215.996,474.746 216.768,473.973 217.722,473.973 C218.675,473.973 219.447,474.746 219.447,475.699 C219.447,476.652 218.675,477.425 217.722,477.425 z" fill="#009999"/>
      <path d="M230.92,483.372 C229.967,483.372 229.194,482.599 229.194,481.646 C229.194,480.693 229.967,479.92 230.92,479.92 C231.873,479.92 232.646,480.693 232.646,481.646 C232.646,482.599 231.873,483.372 230.92,483.372 z" fill="#009999"/>
      <path d="M235.284,482.618 C234.33,482.618 233.558,481.846 233.558,480.892 C233.558,479.939 234.33,479.167 235.284,479.167 C236.237,479.167 237.009,479.939 237.009,480.892 C237.009,481.846 236.237,482.618 235.284,482.618 z" fill="#009999"/>
      <path d="M236.507,487.683 C235.554,487.683 234.782,486.91 234.782,485.957 C234.782,485.003 235.554,484.231 236.507,484.231 C237.461,484.231 238.233,485.003 238.233,485.957 C238.233,486.91 237.461,487.683 236.507,487.683 z" fill="#009999"/>
      <path d="M238.735,478.747 C237.782,478.747 237.009,477.974 237.009,477.021 C237.009,476.067 237.782,475.295 238.735,475.295 C239.689,475.295 240.461,476.067 240.461,477.021 C240.461,477.974 239.689,478.747 238.735,478.747 z" fill="#009999"/>
      <path d="M239.271,483.372 C238.698,483.372 238.233,482.908 238.233,482.335 C238.233,481.762 238.698,481.297 239.271,481.297 C239.844,481.297 240.308,481.762 240.308,482.335 C240.308,482.908 239.844,483.372 239.271,483.372 z" fill="#009999"/>
      <path d="M243.095,477.37 C242.523,477.37 242.058,476.905 242.058,476.332 C242.058,475.759 242.523,475.295 243.095,475.295 C243.668,475.295 244.133,475.759 244.133,476.332 C244.133,476.905 243.668,477.37 243.095,477.37 z" fill="#009999"/>
      <path d="M239.424,487.683 C238.851,487.683 238.386,487.218 238.386,486.645 C238.386,486.072 238.851,485.608 239.424,485.608 C239.997,485.608 240.461,486.072 240.461,486.645 C240.461,487.218 239.997,487.683 239.424,487.683 z" fill="#009999"/>
      <path d="M241.346,485.142 C240.773,485.142 240.308,484.678 240.308,484.105 C240.308,483.532 240.773,483.067 241.346,483.067 C241.919,483.067 242.383,483.532 242.383,484.105 C242.383,484.678 241.919,485.142 241.346,485.142 z" fill="#009999"/>
      <path d="M246.92,481.995 C246.347,481.995 245.883,481.531 245.883,480.958 C245.883,480.385 246.347,479.92 246.92,479.92 C247.493,479.92 247.958,480.385 247.958,480.958 C247.958,481.531 247.493,481.995 246.92,481.995 z" fill="#009999"/>
      <path d="M243.095,486.306 C242.523,486.306 242.058,485.841 242.058,485.268 C242.058,484.695 242.523,484.231 243.095,484.231 C243.668,484.231 244.133,484.695 244.133,485.268 C244.133,485.841 243.668,486.306 243.095,486.306 z" fill="#009999"/>
      <path d="M246.088,485.447 C245.515,485.447 245.051,484.982 245.051,484.409 C245.051,483.837 245.515,483.372 246.088,483.372 C246.661,483.372 247.126,483.837 247.126,484.409 C247.126,484.982 246.661,485.447 246.088,485.447 z" fill="#009999"/>
      <path d="M244.013,489.212 C243.44,489.212 242.976,488.748 242.976,488.175 C242.976,487.602 243.44,487.138 244.013,487.138 C244.586,487.138 245.051,487.602 245.051,488.175 C245.051,488.748 244.586,489.212 244.013,489.212 z" fill="#009999"/>
      <path d="M244.013,492.857 C243.44,492.857 242.976,492.393 242.976,491.82 C242.976,491.247 243.44,490.782 244.013,490.782 C244.586,490.782 245.051,491.247 245.051,491.82 C245.051,492.393 244.586,492.857 244.013,492.857 z" fill="#009999"/>
      <path d="M243.095,481.93 C242.523,481.93 242.058,481.465 242.058,480.892 C242.058,480.319 242.523,479.855 243.095,479.855 C243.668,479.855 244.133,480.319 244.133,480.892 C244.133,481.465 243.668,481.93 243.095,481.93 z" fill="#009999"/>
      <path d="M235.284,474.865 C234.33,474.865 233.558,474.093 233.558,473.139 C233.558,472.186 234.33,471.414 235.284,471.414 C236.237,471.414 237.009,472.186 237.009,473.139 C237.009,474.093 236.237,474.865 235.284,474.865 z" fill="#009999"/>
      <path d="M230.92,475.295 C229.967,475.295 229.194,474.522 229.194,473.569 C229.194,472.616 229.967,471.843 230.92,471.843 C231.873,471.843 232.646,472.616 232.646,473.569 C232.646,474.522 231.873,475.295 230.92,475.295 z" fill="#009999"/>
      <path d="M234.323,470.328 C233.133,470.328 232.168,469.363 232.168,468.173 C232.168,466.982 233.133,466.017 234.323,466.017 C235.513,466.017 236.478,466.982 236.478,468.173 C236.478,469.363 235.513,470.328 234.323,470.328 z" fill="#009999"/>
      <path d="M219.52,473.37 C218.35,473.155 217.574,472.032 217.789,470.861 C218.004,469.69 219.127,468.915 220.298,469.13 C221.469,469.344 222.244,470.467 222.029,471.638 C221.814,472.809 220.691,473.584 219.52,473.37 z" fill="#009999"/>
      <path d="M212.511,472.805 C211.34,472.59 210.565,471.467 210.779,470.296 C210.994,469.125 212.117,468.35 213.288,468.565 C214.459,468.78 215.234,469.903 215.019,471.074 C214.805,472.244 213.681,473.019 212.511,472.805 z" fill="#009999"/>
      <path d="M219.146,460.837 C218.619,461.905 217.327,462.343 216.259,461.816 C215.192,461.29 214.754,459.997 215.28,458.93 C215.807,457.862 217.099,457.424 218.167,457.951 C219.234,458.477 219.673,459.77 219.146,460.837 z" fill="#009999"/>
      <path d="M200.286,496.573 C200.285,497.763 199.318,498.726 198.128,498.725 C196.937,498.723 195.974,497.756 195.976,496.566 C195.978,495.376 196.944,494.412 198.134,494.414 C199.325,494.416 200.288,495.382 200.286,496.573 z" fill="#009999"/>
      <path d="M192.79,492.262 C192.788,493.452 191.822,494.416 190.631,494.414 C189.441,494.412 188.478,493.446 188.479,492.255 C188.481,491.065 189.448,490.102 190.638,490.103 C191.828,490.105 192.792,491.072 192.79,492.262 z" fill="#009999"/>
      <path d="M183.583,492.262 C183.581,493.452 182.615,494.416 181.425,494.414 C180.234,494.412 179.271,493.446 179.273,492.255 C179.274,491.065 180.241,490.102 181.431,490.103 C182.622,490.105 183.585,491.072 183.583,492.262 z" fill="#009999"/>
      <path d="M177.22,488.847 C177.218,490.038 176.251,491.001 175.061,490.999 C173.871,490.998 172.907,490.031 172.909,488.841 C172.911,487.651 173.877,486.687 175.068,486.689 C176.258,486.691 177.221,487.657 177.22,488.847 z" fill="#009999"/>
      <path d="M186.942,500.064 C186.94,501.255 185.974,502.218 184.783,502.216 C183.593,502.215 182.63,501.248 182.631,500.058 C182.633,498.867 183.6,497.904 184.79,497.906 C185.98,497.908 186.944,498.874 186.942,500.064 z" fill="#009999"/>
      <path d="M192.544,497.435 C192.066,498.209 191.051,498.449 190.277,497.971 C189.502,497.493 189.262,496.478 189.74,495.704 C190.218,494.929 191.234,494.689 192.008,495.167 C192.782,495.645 193.022,496.661 192.544,497.435 z" fill="#009999"/>
      <path d="M188.479,495.016 C188.478,496.206 187.511,497.17 186.321,497.168 C185.131,497.166 184.167,496.2 184.169,495.009 C184.171,493.819 185.137,492.855 186.327,492.857 C187.518,492.859 188.481,493.826 188.479,495.016 z" fill="#009999"/>
      <path d="M188.479,505.422 C188.478,506.613 187.511,507.576 186.321,507.574 C185.131,507.572 184.167,506.606 184.169,505.416 C184.171,504.225 185.137,503.262 186.327,503.264 C187.518,503.265 188.481,504.232 188.479,505.422 z" fill="#009999"/>
      <path d="M179.273,496.573 C179.271,497.763 178.304,498.726 177.114,498.725 C175.924,498.723 174.96,497.756 174.962,496.566 C174.964,495.376 175.93,494.412 177.121,494.414 C178.311,494.416 179.274,495.382 179.273,496.573 z" fill="#009999"/>
      <path d="M172.541,493.207 C172.539,494.397 171.573,495.361 170.383,495.359 C169.192,495.357 168.229,494.391 168.231,493.2 C168.232,492.01 169.199,491.047 170.389,491.048 C171.58,491.05 172.543,492.017 172.541,493.207 z" fill="#009999"/>
      <path d="M173.758,500.064 C173.756,501.255 172.79,502.218 171.6,502.216 C170.409,502.215 169.446,501.248 169.448,500.058 C169.449,498.867 170.416,497.904 171.606,497.906 C172.796,497.908 173.76,498.874 173.758,500.064 z" fill="#009999"/>
      <path d="M179.273,501.112 C179.271,502.302 178.304,503.265 177.114,503.264 C175.924,503.262 174.96,502.295 174.962,501.105 C174.964,499.915 175.93,498.951 177.121,498.953 C178.311,498.955 179.274,499.921 179.273,501.112 z" fill="#009999"/>
      <path d="M179.135,505.686 C180.325,505.645 181.323,506.576 181.364,507.766 C181.405,508.955 180.473,509.953 179.284,509.994 C178.094,510.035 177.097,509.104 177.056,507.914 C177.015,506.724 177.946,505.727 179.135,505.686 z" fill="#009999"/>
      <path d="M190.535,468.912 C190.057,469.687 189.042,469.927 188.267,469.449 C187.493,468.971 187.253,467.955 187.731,467.181 C188.209,466.407 189.224,466.167 189.999,466.645 C190.773,467.123 191.013,468.138 190.535,468.912 z" fill="#009999"/>
    </g>
  </g>
</svg>
